PathFileType	4	(X/Y/Z)	/Users/itak/Documents/Research/Walk-IL/dataset/trc/00561_00009.trc
DataRate	CameraRate	NumFrames	NumMarkers	Units	OrigDataRate	OrigDataStartFrame	OrigNumFrames
100.000000	100.000000	4	53	mm	100.000000	315	420
Frame#	Time	RPSI			LPSI			L3			STRN			T10			C7			CLAV			RBAK			LBAK			LSHO			LUPA			LAEL			LAOL			LWTS			LWPS			LFRA			LHPS			LHTS			RSHO			RUPA			RAEL			RAOL			RWTS			RWPS			RFRA			RIFD			RHTS			RHPS			RBHD			LFHD			RFHD			LBHD			LHIP			RHIP			RASI			LASI			LKNE			LTHI			LANK			LTIP			LTOE			LMT1			LMT5			LHEE			RKNE			RTHI			RANK			RTIP			RTOE			RMT1			RMT5			RHEE			LIFD			
		X1	Y1	Z1	X2	Y2	Z2	X3	Y3	Z3	X4	Y4	Z4	X5	Y5	Z5	X6	Y6	Z6	X7	Y7	Z7	X8	Y8	Z8	X9	Y9	Z9	X10	Y10	Z10	X11	Y11	Z11	X12	Y12	Z12	X13	Y13	Z13	X14	Y14	Z14	X15	Y15	Z15	X16	Y16	Z16	X17	Y17	Z17	X18	Y18	Z18	X19	Y19	Z19	X20	Y20	Z20	X21	Y21	Z21	X22	Y22	Z22	X23	Y23	Z23	X24	Y24	Z24	X25	Y25	Z25	X26	Y26	Z26	X27	Y27	Z27	X28	Y28	Z28	X29	Y29	Z29	X30	Y30	Z30	X31	Y31	Z31	X32	Y32	Z32	X33	Y33	Z33	X34	Y34	Z34	X35	Y35	Z35	X36	Y36	Z36	X37	Y37	Z37	X38	Y38	Z38	X39	Y39	Z39	X40	Y40	Z40	X41	Y41	Z41	X42	Y42	Z42	X43	Y43	Z43	X44	Y44	Z44	X45	Y45	Z45	X46	Y46	Z46	X47	Y47	Z47	X48	Y48	Z48	X49	Y49	Z49	X50	Y50	Z50	X51	Y51	Z51	X52	Y52	Z52	X53	Y53	Z53	

316	3.15	791.5037231445312	927.8767700195312	329.4385986328125	852.1189575195312	928.1978149414062	209.8129119873047	830.4137573242188	1037.244506835938	270.025390625	1060.69384765625	1225.48095703125	343.7201538085938	825.3404541015625	1162.730834960938	268.5628356933594	871.787353515625	1438.125854492188	303.16552734375	1042.514282226562	1335.8525390625	336.4980773925781	776.5233764648438	1314.129760742188	364.7899780273438	860.0341796875	1385.793212890625	206.9971771240234	973.8930053710938	1411.741088867188	154.0967407226562	967.1710815429688	1298.03271484375	60.36746597290039	957.5597534179688	1095.307739257812	1.838896155357361	860.2977905273438	1079.38427734375	34.06855773925781	1092.638549804688	899.861083984375	95.76353454589844	1081.711181640625	863.0610961914062	17.42582130432129	1000.04052734375	1021.134643554688	4.653846740722656	1113.39599609375	814.2332153320312	29.75372123718262	1144.109619140625	839.1973876953125	86.15583801269531	887.3324584960938	1399.78564453125	465.155517578125	848.5738525390625	1339.210571289062	524.6699829101562	817.787841796875	1062.869750976562	595.3004760742188	770.1005859375	1037.008911132812	562.064208984375	1005.214294433594	890.0443115234375	600.0764770507812	950.6800537109375	855.6358032226562	650.4684448242188	836.1572875976562	1010.542541503906	608.4813232421875	1069.07470703125	740.7868041992188	626.7581176757812	1057.105712890625	822.2069702148438	641.957763671875	992.4412231445312	798.4666748046875	670.2000732421875	968.1593017578125	1615.379272460938	404.7803649902344	1148.433349609375	1605.886596679688	300.9042663574219	1103.963745117188	1601.64404296875	438.7900390625	1025.306274414062	1616.76123046875	249.4554748535156	1034.182861328125	874.38330078125	154.9443511962891	860.0205078125	869.51611328125	494.24462890625	957.0704956054688	909.847412109375	477.1976013183594	1078.585083007812	906.7979125976562	231.2120208740234	1262.212036132812	512.6976318359375	293.19677734375	1181.74658203125	651.55322265625	226.2100677490234	1223.280517578125	33.14349746704102	308.2791748046875	1238.616333007812	252.5720977783203	297.5327453613281	1411.996826171875	37.37877655029297	433.82080078125	1327.226318359375	47.26968383789062	441.487060546875	1343.225219726562	34.79087066650391	333.3520202636719	1142.98828125	30.37332153320312	337.8228759765625	964.165283203125	434.4102478027344	514.8211059570312	919.4686279296875	724.2250366210938	518.4255981445312	588.1171264648438	200.1218719482422	329.2923889160156	884.0653076171875	322.7547607421875	465.4114074707031	741.5054321289062	44.80614852905273	349.6159057617188	716.5095825195312	86.13892364501953	293.2176513671875	661.8236083984375	101.7779846191406	380.6193237304688	573.1751098632812	231.4271697998047	260.0795288085938	1151.127807617188	745.1607055664062	105.3832550048828	
317	3.16	800.802001953125	926.5509643554688	331.7947387695312	861.7809448242188	928.09033203125	212.1110229492188	840.3812255859375	1037.125732421875	272.9437561035156	1072.346801757812	1223.618286132812	347.8379516601562	836.2055053710938	1162.812622070312	271.2094116210938	885.3203735351562	1438.020629882812	305.9141540527344	1055.039672851562	1334.18115234375	340.5464172363281	788.572021484375	1314.972290039062	367.5420227050781	873.8167114257812	1385.800903320312	209.2273864746094	988.89208984375	1410.83837890625	157.6240386962891	985.3001098632812	1295.968872070312	64.86151885986328	981.9012451171875	1092.532470703125	7.442861080169678	883.9320068359375	1074.818237304688	37.21358871459961	1116.59619140625	898.3302001953125	104.3702774047852	1108.657470703125	862.0612182617188	25.3542652130127	1025.3603515625	1018.908081054688	11.28814697265625	1140.780517578125	813.6419067382812	38.29558181762695	1169.237915039062	838.7207641601562	95.90004730224609	900.3131103515625	1399.300537109375	468.247314453125	861.35986328125	1338.860473632812	527.7413330078125	828.4457397460938	1062.471069335938	597.5152587890625	780.5009765625	1037.218017578125	564.0672607421875	1012.740478515625	886.2293090820312	602.7870483398438	957.2533569335938	852.6334838867188	652.73486328125	845.9556274414062	1009.8193359375	610.749755859375	1073.501220703125	735.7400512695312	629.4105224609375	1063.05712890625	817.311767578125	644.7896118164062	997.8388671875	794.7049560546875	672.5194702148438	982.355224609375	1614.509643554688	407.6543579101562	1162.564331054688	1604.250854492188	303.7475280761719	1118.101196289062	1600.47021484375	441.6396789550781	1039.474243164062	1615.317016601562	252.2979583740234	1044.275756835938	874.934326171875	157.41259765625	869.92822265625	867.6387329101562	496.4515686035156	966.432861328125	908.5729370117188	479.7872314453125	1088.397094726562	906.8085327148438	233.7845001220703	1271.57470703125	512.5371704101562	296.5704040527344	1191.95751953125	652.1277465820312	229.2949066162109	1223.36181640625	33.48600769042969	308.6252136230469	1243.362548828125	252.5801391601562	299.3389587402344	1412.390258789062	36.64963531494141	434.3857421875	1327.49267578125	47.04617691040039	441.84521484375	1343.390991210938	35.01849746704102	333.480224609375	1143.100219726562	30.94778823852539	338.0596313476562	983.6705932617188	435.1627197265625	521.2474365234375	932.17041015625	723.494384765625	521.7095336914062	605.336181640625	206.8362731933594	335.5669250488281	903.201171875	324.7438354492188	471.5042114257812	756.2086181640625	48.0072135925293	359.267822265625	731.981689453125	89.43596649169922	301.9587097167969	677.30126953125	108.5034332275391	388.9184875488281	590.837158203125	236.9044952392578	265.7970275878906	1176.346435546875	744.7950439453125	114.9817047119141	
318	3.17	809.8626708984375	925.9609375	333.917236328125	871.0941162109375	928.5985717773438	214.1497802734375	849.777099609375	1037.522216796875	275.5425109863281	1083.394287109375	1222.3173828125	351.9530334472656	846.562255859375	1163.356323242188	273.8438110351562	898.26416015625	1438.273193359375	308.6422119140625	1066.959594726562	1333.041625976562	344.5851440429688	800.0831909179688	1316.18408203125	370.2038879394531	887.042236328125	1386.159545898438	211.5015716552734	1003.30419921875	1410.453247070312	161.2028656005859	1002.904907226562	1294.688598632812	69.32938385009766	1005.851196289062	1090.6015625	13.21384239196777	907.3626098632812	1071.005737304688	40.55752182006836	1140.4677734375	897.8506469726562	113.0540771484375	1135.41796875	861.9950561523438	33.52775955200195	1050.351684570312	1017.570373535156	18.10806274414062	1168.020629882812	814.0494995117188	47.13176727294922	1194.270141601562	839.3383178710938	105.7596206665039	912.5994873046875	1399.295166015625	471.2518920898438	873.4669799804688	1338.999877929688	530.74658203125	838.7665405273438	1062.536987304688	599.772216796875	790.5078735351562	1037.910278320312	566.1722412109375	1019.776123046875	882.7738647460938	605.1331176757812	963.5192260742188	850.13037109375	654.8908081054688	855.4019165039062	1009.582336425781	613.0245361328125	1077.270874023438	731.0238647460938	631.4148559570312	1068.57421875	812.7181396484375	647.0540771484375	1002.909484863281	791.3609008789062	674.5625610351562	996.26708984375	1614.058471679688	410.6302185058594	1176.34375	1602.786743164062	306.6363220214844	1131.926879882812	1599.480102539062	444.5438232421875	1053.292846679688	1614.26904296875	255.2185821533203	1053.943725585938	875.860107421875	159.8078308105469	879.2888793945312	866.46875	498.4998168945312	975.2922973632812	907.9318237304688	482.3703918457031	1097.632934570312	907.1427612304688	236.40283203125	1279.757568359375	512.2149658203125	299.3231811523438	1201.146728515625	652.5963745117188	231.8529510498047	1223.421508789062	33.73674011230469	308.9075012207031	1247.448852539062	252.5348205566406	300.7160339355469	1412.6640625	36.22311782836914	434.677490234375	1327.7021484375	46.96136474609375	442.03076171875	1343.494018554688	35.16774749755859	333.5583190917969	1143.197875976562	31.47102355957031	338.2486572265625	1002.782836914062	436.8458557128906	527.4828491210938	944.2335815429688	723.4933471679688	524.9389038085938	623.632080078125	211.5347595214844	342.0256652832031	922.4274291992188	327.204833984375	477.6862487792969	773.4044799804688	51.30452728271484	369.2361145019531	749.5601806640625	92.12718200683594	310.9947509765625	694.7063598632812	114.0109786987305	397.4866943359375	609.3453979492188	240.2441711425781	271.6831970214844	1201.550415039062	745.5964965820312	124.9284591674805	
319	3.18	818.6984252929688	926.1254272460938	335.8736572265625	880.029296875	929.7303466796875	216.0082855224609	858.6680908203125	1038.440795898438	277.8970031738281	1093.872802734375	1221.63330078125	356.0569458007812	856.4357299804688	1164.361694335938	276.432373046875	910.6190795898438	1438.911987304688	311.3160095214844	1078.28271484375	1332.487426757812	348.6205139160156	811.1033935546875	1317.728393554688	372.6914672851562	899.7379150390625	1386.896850585938	213.7868957519531	1017.11376953125	1410.584594726562	164.8067169189453	1019.928100585938	1294.181396484375	73.72711944580078	1029.261962890625	1089.542358398438	19.07610511779785	930.45068359375	1068.005493164062	44.04718017578125	1164.135131835938	898.5055541992188	121.7504272460938	1161.813598632812	862.9048461914062	41.90026473999023	1074.847778320312	1017.155151367188	25.03940391540527	1194.935546875	815.5035400390625	56.23884582519531	1219.088623046875	841.1423950195312	115.6540451049805	924.12109375	1399.817260742188	474.1584777832031	884.7831420898438	1339.666137695312	533.6356811523438	848.668701171875	1063.088134765625	602.03662109375	800.0462036132812	1039.1025390625	568.3341674804688	1026.317626953125	879.80615234375	607.1046752929688	969.4983520507812	848.234375	656.9450073242188	864.4249877929688	1009.863586425781	615.2820434570312	1080.474609375	726.80517578125	632.8106079101562	1073.69384765625	808.5923461914062	648.7471313476562	1007.708251953125	788.5670776367188	676.355712890625	1009.826965332031	1614.076049804688	413.69189453125	1189.722534179688	1601.59130859375	309.5813903808594	1145.377319335938	1598.756469726562	447.5114440917969	1066.715454101562	1613.69287109375	258.2171325683594	1063.13037109375	877.1029663085938	162.0858154296875	888.1754760742188	866.0475463867188	500.4359436035156	983.7492065429688	907.9296264648438	484.9008178710938	1106.34130859375	907.8136596679688	238.9832305908203	1286.786376953125	511.7701416015625	301.5250854492188	1209.307739257812	652.9473266601562	233.9538726806641	1223.459106445312	33.92106628417969	309.1310119628906	1250.892944335938	252.4331665039062	301.7449951171875	1412.844116210938	36.01158905029297	434.7742919921875	1327.857177734375	46.94184494018555	442.1094970703125	1343.541625976562	35.2535400390625	333.6065063476562	1143.2744140625	31.92127799987793	338.4082946777344	1021.316040039062	439.4760131835938	533.4813232421875	955.6177978515625	724.2483520507812	528.1314697265625	642.8643798828125	214.0670013427734	348.6752624511719	941.599365234375	330.1124267578125	483.9545288085938	792.9857177734375	54.41294860839844	379.22216796875	769.1358642578125	94.10613250732422	320.0950317382812	713.9384155273438	118.0054473876953	406.1258850097656	628.5587158203125	241.4229431152344	277.7918090820312	1226.668090820312	747.6637573242188	135.1766052246094	
